<mxfile host="app.diagrams.net" agent="Mozilla/5.0 (Windows NT 10.0; Win64; x64) AppleWebKit/537.36 (KHTML, like Gecko) Chrome/138.0.0.0 Safari/537.36" version="28.0.4">
  <diagram name="ページ1" id="yRAuA_Va7HIXH3dxrJmq">
    <mxGraphModel dx="1042" dy="692" grid="1" gridSize="10" guides="1" tooltips="1" connect="1" arrows="1" fold="1" page="1" pageScale="1" pageWidth="827" pageHeight="1169" background="none" math="0" shadow="0">
      <root>
        <mxCell id="0" />
        <mxCell id="1" parent="0" />
        <mxCell id="wi10iDeJtOlkEzcV7lIm-3" value="" style="strokeWidth=1;shadow=0;dashed=0;align=center;html=1;shape=mxgraph.mockup.containers.browserWindow;rSize=0;strokeColor=#666666;strokeColor2=#008cff;strokeColor3=#c4c4c4;mainText=,;recursiveResize=0;" vertex="1" parent="1">
          <mxGeometry x="80" y="40" width="895" height="530" as="geometry" />
        </mxCell>
        <mxCell id="wi10iDeJtOlkEzcV7lIm-4" value="Page 1" style="strokeWidth=1;shadow=0;dashed=0;align=center;html=1;shape=mxgraph.mockup.containers.anchor;fontSize=17;fontColor=#666666;align=left;whiteSpace=wrap;" vertex="1" parent="wi10iDeJtOlkEzcV7lIm-3">
          <mxGeometry x="60" y="12" width="110" height="26" as="geometry" />
        </mxCell>
        <mxCell id="wi10iDeJtOlkEzcV7lIm-5" value="https://localhost:8080/edit_list" style="strokeWidth=1;shadow=0;dashed=0;align=center;html=1;shape=mxgraph.mockup.containers.anchor;rSize=0;fontSize=17;fontColor=#666666;align=left;" vertex="1" parent="wi10iDeJtOlkEzcV7lIm-3">
          <mxGeometry x="130" y="60" width="250" height="26" as="geometry" />
        </mxCell>
        <mxCell id="wi10iDeJtOlkEzcV7lIm-7" value="&lt;font color=&quot;#007fff&quot;&gt;&lt;u&gt;ログアウト&lt;/u&gt;&lt;/font&gt;" style="text;html=1;align=center;verticalAlign=middle;whiteSpace=wrap;rounded=0;" vertex="1" parent="wi10iDeJtOlkEzcV7lIm-3">
          <mxGeometry x="740" y="120" width="70" height="30" as="geometry" />
        </mxCell>
        <mxCell id="wi10iDeJtOlkEzcV7lIm-8" value="&lt;span style=&quot;font-size: 20px;&quot;&gt;&lt;b&gt;勤怠管理システム&lt;/b&gt;&lt;/span&gt;" style="text;html=1;align=center;verticalAlign=middle;whiteSpace=wrap;rounded=0;" vertex="1" parent="wi10iDeJtOlkEzcV7lIm-3">
          <mxGeometry x="330" y="130" width="235" height="30" as="geometry" />
        </mxCell>
        <mxCell id="wi10iDeJtOlkEzcV7lIm-9" value="&lt;div&gt;社員番号：240404590&lt;/div&gt;&lt;div&gt;名前　　：佐藤　宝&lt;/div&gt;" style="text;html=1;align=left;verticalAlign=middle;whiteSpace=wrap;rounded=0;" vertex="1" parent="wi10iDeJtOlkEzcV7lIm-3">
          <mxGeometry x="690" y="150" width="130" height="30" as="geometry" />
        </mxCell>
        <mxCell id="wi10iDeJtOlkEzcV7lIm-191" value="&lt;font style=&quot;font-size: 50px;&quot;&gt;勤怠登録&lt;/font&gt;" style="labelPosition=center;verticalLabelPosition=middle;align=center;html=1;shape=mxgraph.basic.button;dx=7.6;whiteSpace=wrap;" vertex="1" parent="wi10iDeJtOlkEzcV7lIm-3">
          <mxGeometry x="80" y="212.5" width="240" height="105" as="geometry" />
        </mxCell>
        <mxCell id="wi10iDeJtOlkEzcV7lIm-200" value="&lt;font style=&quot;font-size: 50px;&quot;&gt;勤怠編集&lt;/font&gt;" style="labelPosition=center;verticalLabelPosition=middle;align=center;html=1;shape=mxgraph.basic.button;dx=7.6;whiteSpace=wrap;" vertex="1" parent="wi10iDeJtOlkEzcV7lIm-3">
          <mxGeometry x="330" y="212.5" width="240" height="105" as="geometry" />
        </mxCell>
        <mxCell id="wi10iDeJtOlkEzcV7lIm-201" value="&lt;span style=&quot;font-size: 50px;&quot;&gt;日付検索&lt;/span&gt;" style="labelPosition=center;verticalLabelPosition=middle;align=center;html=1;shape=mxgraph.basic.button;dx=7.6;whiteSpace=wrap;" vertex="1" parent="wi10iDeJtOlkEzcV7lIm-3">
          <mxGeometry x="580" y="212.5" width="240" height="105" as="geometry" />
        </mxCell>
        <mxCell id="wi10iDeJtOlkEzcV7lIm-202" value="&lt;span style=&quot;font-size: 50px;&quot;&gt;外部出力&lt;/span&gt;" style="labelPosition=center;verticalLabelPosition=middle;align=center;html=1;shape=mxgraph.basic.button;dx=7.6;whiteSpace=wrap;" vertex="1" parent="wi10iDeJtOlkEzcV7lIm-3">
          <mxGeometry x="80" y="330" width="240" height="105" as="geometry" />
        </mxCell>
        <mxCell id="wi10iDeJtOlkEzcV7lIm-203" value="&lt;font style=&quot;font-size: 50px;&quot;&gt;社員登録&lt;/font&gt;" style="labelPosition=center;verticalLabelPosition=middle;align=center;html=1;shape=mxgraph.basic.button;dx=7.6;whiteSpace=wrap;" vertex="1" parent="wi10iDeJtOlkEzcV7lIm-3">
          <mxGeometry x="330" y="330" width="240" height="105" as="geometry" />
        </mxCell>
      </root>
    </mxGraphModel>
  </diagram>
</mxfile>
